M48
;Layer_Color=9474304
;FILE_FORMAT=4:3
METRIC,TZ
;TYPE=PLATED
T1F00S00C0.800
T2F00S00C1.000
T3F00S00C1.200
%
T01
X95250Y67645
X78105Y80645
X69850
X65405Y83185
Y93345
X82550Y91440
Y102870
X95250Y80645
T02
X80645Y61595
X78105
X75565
X73025
X70485
X45720Y60960
X43180
X40640
Y78740
X43180
X45720
X48260
X50800
X53340
X38100
Y60960
X40005Y90170
X42545
X45085
X47625
X50165
X52705
X55245
X57785
X60325
X62865
X65405
X67945
X70485
X73025
X75565
X78105
Y110490
X75565
X73025
X70485
X67945
X65405
X62865
X60325
X57785
X55245
X52705
X50165
X47625Y116205
X45085
X90170Y111125
X92710
X95250
X97790
X100330
X102870
X105410
X107950
X110490
X113030
X102870Y92710
Y89535
Y86360
X106680
Y83185
T03
X106680Y66755
Y71755
Y76755
M30
