G04*
G04 #@! TF.GenerationSoftware,Altium Limited,Altium Designer,21.6.4 (81)*
G04*
G04 Layer_Physical_Order=1*
G04 Layer_Color=255*
%FSLAX43Y43*%
%MOMM*%
G71*
G04*
G04 #@! TF.SameCoordinates,1146F813-5535-4065-A757-17352E4361FB*
G04*
G04*
G04 #@! TF.FilePolarity,Positive*
G04*
G01*
G75*
%ADD16C,2.000*%
%ADD17C,2.400*%
%ADD18C,2.000*%
D16*
X95250Y80645D02*
D03*
Y67645D02*
D03*
X50165Y90170D02*
D03*
X47625D02*
D03*
X50165Y110490D02*
D03*
X42545Y90170D02*
D03*
X45085D02*
D03*
X52705D02*
D03*
X55245D02*
D03*
X57785D02*
D03*
X60325D02*
D03*
X62865D02*
D03*
X65405D02*
D03*
X67945D02*
D03*
X70485D02*
D03*
X73025D02*
D03*
X75565D02*
D03*
X78105D02*
D03*
X52705Y110490D02*
D03*
X55245D02*
D03*
X57785D02*
D03*
X60325D02*
D03*
X62865D02*
D03*
X65405D02*
D03*
X67945D02*
D03*
X70485D02*
D03*
X73025D02*
D03*
X75565D02*
D03*
X78105D02*
D03*
X40005Y90170D02*
D03*
X38100Y60960D02*
D03*
X40640D02*
D03*
X43180D02*
D03*
X45720D02*
D03*
X38100Y78740D02*
D03*
X40640D02*
D03*
X43180D02*
D03*
X45720D02*
D03*
X48260D02*
D03*
X50800D02*
D03*
X53340D02*
D03*
X90170Y111125D02*
D03*
X92710D02*
D03*
X95250D02*
D03*
X97790D02*
D03*
X100330D02*
D03*
X102870D02*
D03*
X105410D02*
D03*
X107950D02*
D03*
X110490D02*
D03*
X113030D02*
D03*
X70485Y61595D02*
D03*
X73025D02*
D03*
X75565D02*
D03*
X78105D02*
D03*
X80645D02*
D03*
X47625Y116205D02*
D03*
X45085D02*
D03*
X106680Y86360D02*
D03*
Y83185D02*
D03*
X102870Y89535D02*
D03*
X65405Y83185D02*
D03*
Y93345D02*
D03*
X82550Y91440D02*
D03*
Y102870D02*
D03*
X78105Y80645D02*
D03*
X69850D02*
D03*
D17*
X106680Y71755D02*
D03*
Y66755D02*
D03*
Y76755D02*
D03*
D18*
X102870Y92710D02*
D03*
Y86360D02*
D03*
M02*
