G04*
G04 #@! TF.GenerationSoftware,Altium Limited,Altium Designer,21.6.4 (81)*
G04*
G04 Layer_Color=65535*
%FSLAX43Y43*%
%MOMM*%
G71*
G04*
G04 #@! TF.SameCoordinates,1146F813-5535-4065-A757-17352E4361FB*
G04*
G04*
G04 #@! TF.FilePolarity,Positive*
G04*
G01*
G75*
%ADD10C,0.200*%
%ADD11C,0.254*%
%ADD12C,0.100*%
D10*
X95250Y77570D02*
X97750D01*
Y70720D02*
Y77570D01*
X92750Y70720D02*
X97750D01*
X92750D02*
Y77570D01*
X95250D01*
Y69545D02*
Y70720D01*
Y77570D02*
Y78745D01*
X33655Y108655D02*
X84455D01*
X33655Y92005D02*
X84455D01*
X84455Y108655D02*
X84455Y92005D01*
X33655Y108655D02*
X33655Y92005D01*
X36830Y62660D02*
X54610D01*
Y77060D01*
X36830D02*
X36830Y62660D01*
X36830Y77060D02*
X54610D01*
X88900Y109225D02*
X114300D01*
X88900Y96393D02*
Y109225D01*
Y96393D02*
X114300D01*
Y109225D01*
D11*
X102743Y64336D02*
Y79068D01*
X110744D01*
Y64336D02*
Y79068D01*
X102743Y64336D02*
X110744D01*
X89154Y73533D02*
Y75057D01*
X89916D01*
X90170Y74803D01*
Y74295D01*
X89916Y74041D01*
X89154D01*
X89662D02*
X90170Y73533D01*
X90678D02*
X91186D01*
X90932D01*
Y75057D01*
X90678Y74803D01*
X103886Y81737D02*
X102870D01*
Y80975D01*
X103378D01*
X102870D01*
Y80213D01*
X105409Y81483D02*
X105155Y81737D01*
X104647D01*
X104394Y81483D01*
Y81229D01*
X104647Y80975D01*
X105155D01*
X105409Y80721D01*
Y80467D01*
X105155Y80213D01*
X104647D01*
X104394Y80467D01*
X105917Y81737D02*
X106933D01*
X106425D01*
Y80213D01*
X108456D02*
X107441D01*
X108456Y81229D01*
Y81483D01*
X108202Y81737D01*
X107694D01*
X107441Y81483D01*
X108964D02*
X109218Y81737D01*
X109726D01*
X109980Y81483D01*
Y80467D01*
X109726Y80213D01*
X109218D01*
X108964Y80467D01*
Y81483D01*
X111503Y80213D02*
X110488D01*
X111503Y81229D01*
Y81483D01*
X111249Y81737D01*
X110741D01*
X110488Y81483D01*
X112011Y79959D02*
X113027D01*
X113535Y81737D02*
Y80213D01*
X114042Y80721D01*
X114550Y80213D01*
Y81737D01*
X115058Y80213D02*
X115566D01*
X115312D01*
Y81229D01*
X115058D01*
X116328Y80213D02*
Y81229D01*
X117089D01*
X117343Y80975D01*
Y80213D01*
X118867Y81737D02*
Y80213D01*
X118105D01*
X117851Y80467D01*
Y80975D01*
X118105Y81229D01*
X118867D01*
X119375Y79959D02*
X120390D01*
X121914Y81483D02*
X121660Y81737D01*
X121152D01*
X120898Y81483D01*
Y81229D01*
X121152Y80975D01*
X121660D01*
X121914Y80721D01*
Y80467D01*
X121660Y80213D01*
X121152D01*
X120898Y80467D01*
X123183Y80213D02*
X122676D01*
X122422Y80467D01*
Y80975D01*
X122676Y81229D01*
X123183D01*
X123437Y80975D01*
Y80721D01*
X122422D01*
X123945Y80213D02*
Y81229D01*
X124707D01*
X124961Y80975D01*
Y80213D01*
X125469D02*
X126230D01*
X126484Y80467D01*
X126230Y80721D01*
X125723D01*
X125469Y80975D01*
X125723Y81229D01*
X126484D01*
X127246Y80213D02*
X127754D01*
X128008Y80467D01*
Y80975D01*
X127754Y81229D01*
X127246D01*
X126992Y80975D01*
Y80467D01*
X127246Y80213D01*
X128516Y81229D02*
Y80213D01*
Y80721D01*
X128770Y80975D01*
X129024Y81229D01*
X129277D01*
X34823Y113868D02*
X33807D01*
Y113106D01*
X34315D01*
X33807D01*
Y112344D01*
X36093D02*
X35585D01*
X35331Y112598D01*
Y113106D01*
X35585Y113360D01*
X36093D01*
X36347Y113106D01*
Y112852D01*
X35331D01*
X37108Y113360D02*
X37616D01*
X37870Y113106D01*
Y112344D01*
X37108D01*
X36854Y112598D01*
X37108Y112852D01*
X37870D01*
X38632Y113614D02*
Y113360D01*
X38378D01*
X38886D01*
X38632D01*
Y112598D01*
X38886Y112344D01*
X39648Y113868D02*
Y112344D01*
Y113106D01*
X39901Y113360D01*
X40409D01*
X40663Y113106D01*
Y112344D01*
X41933D02*
X41425D01*
X41171Y112598D01*
Y113106D01*
X41425Y113360D01*
X41933D01*
X42187Y113106D01*
Y112852D01*
X41171D01*
X42695Y113360D02*
Y112344D01*
Y112852D01*
X42948Y113106D01*
X43202Y113360D01*
X43456D01*
X37998Y82118D02*
X37744Y82372D01*
X37236D01*
X36982Y82118D01*
Y81864D01*
X37236Y81610D01*
X37744D01*
X37998Y81356D01*
Y81102D01*
X37744Y80848D01*
X37236D01*
X36982Y81102D01*
X38506Y82372D02*
Y80848D01*
X39268D01*
X39522Y81102D01*
Y82118D01*
X39268Y82372D01*
X38506D01*
X40029Y80594D02*
X41045D01*
X42569Y82118D02*
X42315Y82372D01*
X41807D01*
X41553Y82118D01*
Y81102D01*
X41807Y80848D01*
X42315D01*
X42569Y81102D01*
X43330Y81864D02*
X43838D01*
X44092Y81610D01*
Y80848D01*
X43330D01*
X43076Y81102D01*
X43330Y81356D01*
X44092D01*
X44600Y81864D02*
Y80848D01*
Y81356D01*
X44854Y81610D01*
X45108Y81864D01*
X45362D01*
X47139Y82372D02*
Y80848D01*
X46377D01*
X46123Y81102D01*
Y81610D01*
X46377Y81864D01*
X47139D01*
X104396Y95250D02*
X104142Y95504D01*
X103634D01*
X103380Y95250D01*
Y94996D01*
X103634Y94742D01*
X104142D01*
X104396Y94488D01*
Y94234D01*
X104142Y93980D01*
X103634D01*
X103380Y94234D01*
X105158Y94996D02*
X105666D01*
X105919Y94742D01*
Y93980D01*
X105158D01*
X104904Y94234D01*
X105158Y94488D01*
X105919D01*
X106427Y93980D02*
X106935D01*
X106681D01*
Y94996D01*
X106427D01*
X107697Y93980D02*
X108205D01*
X107951D01*
Y95504D01*
X107697D01*
X108966Y93726D02*
X109982D01*
X111506Y95250D02*
X111252Y95504D01*
X110744D01*
X110490Y95250D01*
Y94996D01*
X110744Y94742D01*
X111252D01*
X111506Y94488D01*
Y94234D01*
X111252Y93980D01*
X110744D01*
X110490Y94234D01*
X112775Y93980D02*
X112267D01*
X112014Y94234D01*
Y94742D01*
X112267Y94996D01*
X112775D01*
X113029Y94742D01*
Y94488D01*
X112014D01*
X113537Y94996D02*
Y93980D01*
Y94488D01*
X113791Y94742D01*
X114045Y94996D01*
X114299D01*
X115061D02*
X115568Y93980D01*
X116076Y94996D01*
X116838Y93980D02*
X117346D01*
X117600Y94234D01*
Y94742D01*
X117346Y94996D01*
X116838D01*
X116584Y94742D01*
Y94234D01*
X116838Y93980D01*
X86363Y83820D02*
Y85344D01*
X87125D01*
X87379Y85090D01*
Y84582D01*
X87125Y84328D01*
X86363D01*
X86871D02*
X87379Y83820D01*
X87886Y84836D02*
Y84074D01*
X88140Y83820D01*
X88902D01*
Y84836D01*
X90426Y85344D02*
Y83820D01*
X89664D01*
X89410Y84074D01*
Y84582D01*
X89664Y84836D01*
X90426D01*
X91949Y85344D02*
Y83820D01*
X91187D01*
X90933Y84074D01*
Y84582D01*
X91187Y84836D01*
X91949D01*
X93219Y83820D02*
X92711D01*
X92457Y84074D01*
Y84582D01*
X92711Y84836D01*
X93219D01*
X93473Y84582D01*
Y84328D01*
X92457D01*
X93980Y84836D02*
Y83820D01*
Y84328D01*
X94234Y84582D01*
X94488Y84836D01*
X94742D01*
X95504Y83566D02*
X96520D01*
X98043Y85090D02*
X97789Y85344D01*
X97281D01*
X97027Y85090D01*
Y84836D01*
X97281Y84582D01*
X97789D01*
X98043Y84328D01*
Y84074D01*
X97789Y83820D01*
X97281D01*
X97027Y84074D01*
X99313Y83820D02*
X98805D01*
X98551Y84074D01*
Y84582D01*
X98805Y84836D01*
X99313D01*
X99567Y84582D01*
Y84328D01*
X98551D01*
X100074Y84836D02*
Y83820D01*
Y84328D01*
X100328Y84582D01*
X100582Y84836D01*
X100836D01*
X101598D02*
X102106Y83820D01*
X102614Y84836D01*
X103375Y83820D02*
X103883D01*
X104137Y84074D01*
Y84582D01*
X103883Y84836D01*
X103375D01*
X103121Y84582D01*
Y84074D01*
X103375Y83820D01*
X89052Y112979D02*
Y114503D01*
X89560Y113995D01*
X90068Y114503D01*
Y112979D01*
X90576D02*
Y114503D01*
X91338D01*
X91592Y114249D01*
Y113741D01*
X91338Y113487D01*
X90576D01*
X92099Y114503D02*
Y113233D01*
X92353Y112979D01*
X92861D01*
X93115Y113233D01*
Y114503D01*
X93623Y113741D02*
X94639D01*
X95146Y113233D02*
X95400Y112979D01*
X95908D01*
X96162Y113233D01*
Y114249D01*
X95908Y114503D01*
X95400D01*
X95146Y114249D01*
Y113995D01*
X95400Y113741D01*
X96162D01*
X97686Y112979D02*
X96670D01*
X97686Y113995D01*
Y114249D01*
X97432Y114503D01*
X96924D01*
X96670Y114249D01*
X99209Y114503D02*
X98193D01*
Y113741D01*
X98701Y113995D01*
X98955D01*
X99209Y113741D01*
Y113233D01*
X98955Y112979D01*
X98447D01*
X98193Y113233D01*
X99717Y114249D02*
X99971Y114503D01*
X100479D01*
X100733Y114249D01*
Y113233D01*
X100479Y112979D01*
X99971D01*
X99717Y113233D01*
Y114249D01*
X70104Y78409D02*
X69850Y78663D01*
X69342D01*
X69088Y78409D01*
Y77394D01*
X69342Y77140D01*
X69850D01*
X70104Y77394D01*
Y77902D01*
X69596D01*
X70612Y77140D02*
Y78663D01*
X71373D01*
X71627Y78409D01*
Y77902D01*
X71373Y77648D01*
X70612D01*
X73151Y78409D02*
X72897Y78663D01*
X72389D01*
X72135Y78409D01*
Y78155D01*
X72389Y77902D01*
X72897D01*
X73151Y77648D01*
Y77394D01*
X72897Y77140D01*
X72389D01*
X72135Y77394D01*
X44247Y119583D02*
X44501Y119837D01*
X45009D01*
X45262Y119583D01*
Y119329D01*
X45009Y119075D01*
X44755D01*
X45009D01*
X45262Y118821D01*
Y118567D01*
X45009Y118313D01*
X44501D01*
X44247Y118567D01*
X45770Y118313D02*
Y118567D01*
X46024D01*
Y118313D01*
X45770D01*
X47040Y119837D02*
X48056D01*
Y119583D01*
X47040Y118567D01*
Y118313D01*
X48563Y119837D02*
Y118821D01*
X49071Y118313D01*
X49579Y118821D01*
Y119837D01*
X50087Y118059D02*
X51103D01*
X51610Y119837D02*
Y118313D01*
X52372D01*
X52626Y118567D01*
Y118821D01*
X52372Y119075D01*
X51610D01*
X52372D01*
X52626Y119329D01*
Y119583D01*
X52372Y119837D01*
X51610D01*
X53388Y119329D02*
X53896D01*
X54150Y119075D01*
Y118313D01*
X53388D01*
X53134Y118567D01*
X53388Y118821D01*
X54150D01*
X54911Y119583D02*
Y119329D01*
X54657D01*
X55165D01*
X54911D01*
Y118567D01*
X55165Y118313D01*
D12*
X82285Y59795D02*
Y76327D01*
X68885Y59795D02*
X82285D01*
X68885Y76327D02*
X82285D01*
X68885Y59795D02*
Y76327D01*
M02*
